<svg width="75" height="67" viewBox="0 0 75 67" fill="none" xmlns="http://www.w3.org/2000/svg">
<path d="M8.625 58.2438V63.8125C8.625 64.6891 8.32869 65.4237 7.73606 66.0163C7.14275 66.6096 6.40781 66.9063 5.53125 66.9063H3.46875C2.59219 66.9063 1.85759 66.6096 1.26497 66.0163C0.671657 65.4237 0.375 64.6891 0.375 63.8125V30.4L9.14062 4C9.48438 3.0375 10.0516 2.28125 10.8422 1.73125C11.6328 1.18125 12.5437 0.90625 13.575 0.90625H61.425C62.4562 0.90625 63.3672 1.18125 64.1578 1.73125C64.9484 2.28125 65.5156 3.0375 65.8594 4L74.625 30.4V63.8125C74.625 64.6891 74.3287 65.4237 73.7361 66.0163C73.1427 66.6096 72.4078 66.9063 71.5312 66.9063H69.3656C68.4891 66.9063 67.7545 66.6096 67.1618 66.0163C66.5685 65.4237 66.2719 64.6891 66.2719 63.8125V58.2438H8.625ZM8.93437 24.2125H66.0656L60.3937 7.09375H14.6062L8.93437 24.2125ZM17.469 46.9C19.0668 46.9 20.3984 46.3586 21.4641 45.2758C22.5297 44.193 23.0625 42.8781 23.0625 41.3313C23.0625 39.7273 22.5211 38.3637 21.4383 37.2403C20.3555 36.1176 19.0406 35.5563 17.4937 35.5563C15.8898 35.5563 14.5262 36.1152 13.4028 37.2331C12.2801 38.3516 11.7188 39.7094 11.7188 41.3065C11.7188 42.9043 12.2777 44.2359 13.3956 45.3016C14.5141 46.3672 15.8719 46.9 17.469 46.9ZM57.6094 46.9C59.2133 46.9 60.577 46.3586 61.7003 45.2758C62.823 44.193 63.3844 42.8781 63.3844 41.3313C63.3844 39.7273 62.8254 38.3637 61.7076 37.2403C60.589 36.1176 59.2312 35.5563 57.6341 35.5563C56.0364 35.5563 54.7047 36.1152 53.6391 37.2331C52.5734 38.3516 52.0406 39.7094 52.0406 41.3065C52.0406 42.9043 52.582 44.2359 53.6648 45.3016C54.7477 46.3672 56.0625 46.9 57.6094 46.9Z" fill="#005DBC"/>
</svg>
