<svg width="19" height="19" viewBox="0 0 19 19" fill="none" xmlns="http://www.w3.org/2000/svg">
<path d="M17.6167 18.2812C15.5334 18.2812 13.475 17.8271 11.4417 16.9188C9.40835 16.0104 7.55835 14.7229 5.89169 13.0563C4.22502 11.3896 2.93752 9.53958 2.02919 7.50625C1.12085 5.47292 0.666687 3.41458 0.666687 1.33125C0.666687 1.03125 0.766687 0.78125 0.966687 0.58125C1.16669 0.38125 1.41669 0.28125 1.71669 0.28125H5.76669C6.00002 0.28125 6.20835 0.360417 6.39169 0.51875C6.57502 0.677083 6.68335 0.864583 6.71669 1.08125L7.36669 4.58125C7.40002 4.84792 7.39169 5.07292 7.34169 5.25625C7.29169 5.43958 7.20002 5.59792 7.06669 5.73125L4.64169 8.18125C4.97502 8.79792 5.37085 9.39375 5.82919 9.96875C6.28752 10.5437 6.79169 11.0979 7.34169 11.6313C7.85835 12.1479 8.40002 12.6271 8.96669 13.0688C9.53335 13.5104 10.1334 13.9146 10.7667 14.2812L13.1167 11.9313C13.2667 11.7812 13.4625 11.6687 13.7042 11.5938C13.9459 11.5188 14.1834 11.4979 14.4167 11.5312L17.8667 12.2312C18.1 12.2979 18.2917 12.4187 18.4417 12.5938C18.5917 12.7688 18.6667 12.9646 18.6667 13.1813V17.2313C18.6667 17.5312 18.5667 17.7812 18.3667 17.9813C18.1667 18.1812 17.9167 18.2812 17.6167 18.2812ZM3.69169 6.28125L5.34169 4.63125L4.91669 2.28125H2.69169C2.77502 2.96458 2.89169 3.63958 3.04169 4.30625C3.19169 4.97292 3.40835 5.63125 3.69169 6.28125ZM12.6417 15.2312C13.2917 15.5146 13.9542 15.7396 14.6292 15.9062C15.3042 16.0729 15.9834 16.1813 16.6667 16.2312V14.0312L14.3167 13.5563L12.6417 15.2312Z" fill="white"/>
</svg>
