<svg width="22" height="21" viewBox="0 0 22 21" fill="none" xmlns="http://www.w3.org/2000/svg">
<path d="M15.5 11.5L11.35 7.45C10.8333 6.95 10.3958 6.39583 10.0375 5.7875C9.67917 5.17917 9.5 4.51667 9.5 3.8C9.5 2.88333 9.82083 2.10417 10.4625 1.4625C11.1042 0.820833 11.8833 0.5 12.8 0.5C13.3333 0.5 13.8333 0.6125 14.3 0.8375C14.7667 1.0625 15.1667 1.36667 15.5 1.75C15.8333 1.36667 16.2333 1.0625 16.7 0.8375C17.1667 0.6125 17.6667 0.5 18.2 0.5C19.1167 0.5 19.8958 0.820833 20.5375 1.4625C21.1792 2.10417 21.5 2.88333 21.5 3.8C21.5 4.51667 21.325 5.17917 20.975 5.7875C20.625 6.39583 20.1917 6.95 19.675 7.45L15.5 11.5ZM15.5 8.7L18.225 6.025C18.5417 5.70833 18.8333 5.37083 19.1 5.0125C19.3667 4.65417 19.5 4.25 19.5 3.8C19.5 3.43333 19.375 3.125 19.125 2.875C18.875 2.625 18.5667 2.5 18.2 2.5C17.9667 2.5 17.7458 2.54583 17.5375 2.6375C17.3292 2.72917 17.15 2.86667 17 3.05L15.5 4.85L14 3.05C13.85 2.86667 13.6708 2.72917 13.4625 2.6375C13.2542 2.54583 13.0333 2.5 12.8 2.5C12.4333 2.5 12.125 2.625 11.875 2.875C11.625 3.125 11.5 3.43333 11.5 3.8C11.5 4.25 11.6333 4.65417 11.9 5.0125C12.1667 5.37083 12.4583 5.70833 12.775 6.025L15.5 8.7ZM6.5 17L13.45 18.9L19.4 17.05C19.3167 16.9 19.1958 16.7708 19.0375 16.6625C18.8792 16.5542 18.7 16.5 18.5 16.5H13.45C13 16.5 12.6417 16.4833 12.375 16.45C12.1083 16.4167 11.8333 16.35 11.55 16.25L9.225 15.475L9.775 13.525L11.8 14.2C12.0833 14.2833 12.4167 14.35 12.8 14.4C13.1833 14.45 13.75 14.4833 14.5 14.5C14.5 14.3167 14.4458 14.1417 14.3375 13.975C14.2292 13.8083 14.1 13.7 13.95 13.65L8.1 11.5H6.5V17ZM0.5 20.5V9.5H8.1C8.21667 9.5 8.33333 9.5125 8.45 9.5375C8.56667 9.5625 8.675 9.59167 8.775 9.625L14.65 11.8C15.2 12 15.6458 12.35 15.9875 12.85C16.3292 13.35 16.5 13.9 16.5 14.5H18.5C19.3333 14.5 20.0417 14.775 20.625 15.325C21.2083 15.875 21.5 16.6 21.5 17.5V18.5L13.5 21L6.5 19.05V20.5H0.5ZM2.5 18.5H4.5V11.5H2.5V18.5Z" fill="#303030"/>
</svg>
