<svg width="21" height="17" viewBox="0 0 21 17" fill="none" xmlns="http://www.w3.org/2000/svg">
<path d="M2.66669 16.2812C2.11669 16.2812 1.64585 16.0854 1.25419 15.6938C0.86252 15.3021 0.666687 14.8313 0.666687 14.2812V2.28125C0.666687 1.73125 0.86252 1.26042 1.25419 0.86875C1.64585 0.477083 2.11669 0.28125 2.66669 0.28125H18.6667C19.2167 0.28125 19.6875 0.477083 20.0792 0.86875C20.4709 1.26042 20.6667 1.73125 20.6667 2.28125V14.2812C20.6667 14.8313 20.4709 15.3021 20.0792 15.6938C19.6875 16.0854 19.2167 16.2812 18.6667 16.2812H2.66669ZM10.6667 9.28125L2.66669 4.28125V14.2812H18.6667V4.28125L10.6667 9.28125ZM10.6667 7.28125L18.6667 2.28125H2.66669L10.6667 7.28125ZM2.66669 4.28125V2.28125V14.2812V4.28125Z" fill="white"/>
</svg>
