<svg width="23" height="17" viewBox="0 0 23 17" fill="none" xmlns="http://www.w3.org/2000/svg">
<path d="M13.5 9.5C12.6667 9.5 11.9583 9.20833 11.375 8.625C10.7917 8.04167 10.5 7.33333 10.5 6.5C10.5 5.66667 10.7917 4.95833 11.375 4.375C11.9583 3.79167 12.6667 3.5 13.5 3.5C14.3333 3.5 15.0417 3.79167 15.625 4.375C16.2083 4.95833 16.5 5.66667 16.5 6.5C16.5 7.33333 16.2083 8.04167 15.625 8.625C15.0417 9.20833 14.3333 9.5 13.5 9.5ZM6.5 12.5C5.95 12.5 5.47917 12.3042 5.0875 11.9125C4.69583 11.5208 4.5 11.05 4.5 10.5V2.5C4.5 1.95 4.69583 1.47917 5.0875 1.0875C5.47917 0.695833 5.95 0.5 6.5 0.5H20.5C21.05 0.5 21.5208 0.695833 21.9125 1.0875C22.3042 1.47917 22.5 1.95 22.5 2.5V10.5C22.5 11.05 22.3042 11.5208 21.9125 11.9125C21.5208 12.3042 21.05 12.5 20.5 12.5H6.5ZM8.5 10.5H18.5C18.5 9.95 18.6958 9.47917 19.0875 9.0875C19.4792 8.69583 19.95 8.5 20.5 8.5V4.5C19.95 4.5 19.4792 4.30417 19.0875 3.9125C18.6958 3.52083 18.5 3.05 18.5 2.5H8.5C8.5 3.05 8.30417 3.52083 7.9125 3.9125C7.52083 4.30417 7.05 4.5 6.5 4.5V8.5C7.05 8.5 7.52083 8.69583 7.9125 9.0875C8.30417 9.47917 8.5 9.95 8.5 10.5ZM19.5 16.5H2.5C1.95 16.5 1.47917 16.3042 1.0875 15.9125C0.695833 15.5208 0.5 15.05 0.5 14.5V3.5H2.5V14.5H19.5V16.5Z" fill="#303030"/>
</svg>
