<svg width="20" height="21" viewBox="0 0 20 21" fill="none" xmlns="http://www.w3.org/2000/svg">
<path d="M7 10.7812H8V8.78125H9C9.28333 8.78125 9.52083 8.68542 9.7125 8.49375C9.90417 8.30208 10 8.06458 10 7.78125V6.78125C10 6.49792 9.90417 6.26042 9.7125 6.06875C9.52083 5.87708 9.28333 5.78125 9 5.78125H7V10.7812ZM8 7.78125V6.78125H9V7.78125H8ZM11 10.7812H13C13.2833 10.7812 13.5208 10.6854 13.7125 10.4938C13.9042 10.3021 14 10.0646 14 9.78125V6.78125C14 6.49792 13.9042 6.26042 13.7125 6.06875C13.5208 5.87708 13.2833 5.78125 13 5.78125H11V10.7812ZM12 9.78125V6.78125H13V9.78125H12ZM15 10.7812H16V8.78125H17V7.78125H16V6.78125H17V5.78125H15V10.7812ZM6 16.2812C5.45 16.2812 4.97917 16.0854 4.5875 15.6938C4.19583 15.3021 4 14.8313 4 14.2812V2.28125C4 1.73125 4.19583 1.26042 4.5875 0.86875C4.97917 0.477083 5.45 0.28125 6 0.28125H18C18.55 0.28125 19.0208 0.477083 19.4125 0.86875C19.8042 1.26042 20 1.73125 20 2.28125V14.2812C20 14.8313 19.8042 15.3021 19.4125 15.6938C19.0208 16.0854 18.55 16.2812 18 16.2812H6ZM6 14.2812H18V2.28125H6V14.2812ZM2 20.2812C1.45 20.2812 0.979167 20.0854 0.5875 19.6938C0.195833 19.3021 0 18.8313 0 18.2812V4.28125H2V18.2812H16V20.2812H2Z" fill="white"/>
</svg>
