<svg width="95" height="48" viewBox="0 0 95 48" fill="none" xmlns="http://www.w3.org/2000/svg">
<path d="M0 47.5312V42.2865C0 39.7419 1.36892 37.671 4.10677 36.0739C6.84462 34.476 10.4361 33.6771 14.8814 33.6771C15.6836 33.6771 16.4551 33.6936 17.196 33.7266C17.9369 33.7595 18.6701 33.8305 19.3958 33.9393C18.8681 35.0839 18.4722 36.2441 18.2083 37.4197C17.9444 38.5947 17.8125 39.8211 17.8125 41.099V47.5312H0ZM23.75 47.5312V41.099C23.75 38.9878 24.3273 37.0582 25.4818 35.3099C26.6363 33.5616 28.2691 32.0278 30.3802 30.7083C32.4913 29.3889 35.0148 28.3993 37.9505 27.7396C40.8863 27.0799 44.0694 26.75 47.5 26.75C50.9965 26.75 54.2127 27.0799 57.1484 27.7396C60.0842 28.3993 62.6076 29.3889 64.7188 30.7083C66.8299 32.0278 68.4462 33.5616 69.5677 35.3099C70.6892 37.0582 71.25 38.9878 71.25 41.099V47.5312H23.75ZM77.1875 47.5312V41.099C77.1875 39.7887 77.0721 38.5541 76.8411 37.395C76.6102 36.2358 76.2309 35.0866 75.7031 33.9472C76.4288 33.8331 77.1601 33.7595 77.897 33.7266C78.6339 33.6936 79.387 33.6771 80.1562 33.6771C84.6094 33.6771 88.1966 34.4612 90.918 36.0293C93.6393 37.5975 95 39.6832 95 42.2865V47.5312H77.1875ZM14.8012 30.7083C12.9164 30.7083 11.2977 30.0301 9.94531 28.6738C8.59288 27.3167 7.91667 25.6859 7.91667 23.7812C7.91667 21.8681 8.59486 20.2352 9.95125 18.8828C11.3083 17.5304 12.9391 16.8542 14.8438 16.8542C16.7569 16.8542 18.3898 17.5304 19.7422 18.8828C21.0946 20.2352 21.7708 21.8822 21.7708 23.8238C21.7708 25.7086 21.0946 27.3273 19.7422 28.6797C18.3898 30.0321 16.7428 30.7083 14.8012 30.7083ZM80.1137 30.7083C78.2289 30.7083 76.6102 30.0301 75.2578 28.6738C73.9054 27.3167 73.2292 25.6859 73.2292 23.7812C73.2292 21.8681 73.9074 20.2352 75.2637 18.8828C76.6208 17.5304 78.2516 16.8542 80.1562 16.8542C82.0695 16.8542 83.7023 17.5304 85.0547 18.8828C86.4071 20.2352 87.0833 21.8822 87.0833 23.8238C87.0833 25.7086 86.4071 27.3273 85.0547 28.6797C83.7023 30.0321 82.0553 30.7083 80.1137 30.7083ZM47.5 23.7812C44.2014 23.7812 41.3976 22.6267 39.0885 20.3177C36.7795 18.0087 35.625 15.2049 35.625 11.9062C35.625 8.54167 36.7795 5.72135 39.0885 3.44531C41.3976 1.16927 44.2014 0.03125 47.5 0.03125C50.8646 0.03125 53.6849 1.16927 55.9609 3.44531C58.237 5.72135 59.375 8.54167 59.375 11.9062C59.375 15.2049 58.237 18.0087 55.9609 20.3177C53.6849 22.6267 50.8646 23.7812 47.5 23.7812Z" fill="#005DBC"/>
</svg>
