<svg width="16" height="21" viewBox="0 0 16 21" fill="none" xmlns="http://www.w3.org/2000/svg">
<path d="M8 14.5C9.7 12.9667 10.7917 11.8875 11.275 11.2625C11.7583 10.6375 12 10.0167 12 9.4C12 8.8 11.7833 8.28333 11.35 7.85C10.9167 7.41667 10.4 7.2 9.8 7.2C9.45 7.2 9.1125 7.27083 8.7875 7.4125C8.4625 7.55417 8.2 7.75 8 8C7.8 7.75 7.54167 7.55417 7.225 7.4125C6.90833 7.27083 6.56667 7.2 6.2 7.2C5.6 7.2 5.08333 7.41667 4.65 7.85C4.21667 8.28333 4 8.8 4 9.4C4 9.71667 4.04167 10.0083 4.125 10.275C4.20833 10.5417 4.39167 10.8542 4.675 11.2125C4.95833 11.5708 5.3625 12.0083 5.8875 12.525C6.4125 13.0417 7.11667 13.7 8 14.5ZM8 20.5C5.68333 19.9167 3.77083 18.5875 2.2625 16.5125C0.754167 14.4375 0 12.1333 0 9.6V3.5L8 0.5L16 3.5V9.6C16 12.1333 15.2458 14.4375 13.7375 16.5125C12.2292 18.5875 10.3167 19.9167 8 20.5ZM8 18.4C9.73333 17.85 11.1667 16.75 12.3 15.1C13.4333 13.45 14 11.6167 14 9.6V4.875L8 2.625L2 4.875V9.6C2 11.6167 2.56667 13.45 3.7 15.1C4.83333 16.75 6.26667 17.85 8 18.4Z" fill="#303030"/>
</svg>
